<svg width="71" height="71" viewBox="0 0 71 71" fill="none" xmlns="http://www.w3.org/2000/svg">
<path d="M35.5 69.25C54.1401 69.25 69.25 54.1401 69.25 35.5C69.25 16.8599 54.1401 1.75 35.5 1.75C16.8599 1.75 1.75 16.8599 1.75 35.5C1.75 54.1401 16.8599 69.25 35.5 69.25Z" stroke="#F8F8F8" stroke-width="3.5" stroke-linecap="round" stroke-linejoin="round"/>
<path d="M45.625 23.6875C43.3131 21.3756 39.2429 19.7691 35.5 19.6679M25.375 45.625C27.5485 48.5275 31.5951 50.1813 35.5 50.3196M35.5 19.6679C31.045 19.5464 27.0625 21.5613 27.0625 27.0625C27.0625 37.1875 45.625 32.125 45.625 42.25C45.625 48.0246 40.684 50.5053 35.5 50.3196M35.5 19.6679V13.5625M35.5 50.3196V57.4375" stroke="#F8F8F8" stroke-width="3.5" stroke-linecap="round" stroke-linejoin="round"/>
</svg>
