<svg width="82" height="73" viewBox="0 0 82 73" fill="none" xmlns="http://www.w3.org/2000/svg">
<path d="M43 71C59.568 71 73 57.568 73 41C73 24.432 59.568 11 43 11C26.432 11 13 24.432 13 41C13 57.568 26.432 71 43 71Z" stroke="#F8F8F8" stroke-width="4" stroke-linecap="round" stroke-linejoin="round"/>
<path d="M35 13C38.61 15.016 42 18 41.716 21.89C41.488 25 38.83 25.694 38.274 27.942C37.718 30.19 40.934 32.642 35.494 36.272C31.862 38.692 20.94 43.29 13 39" stroke="#F8F8F8" stroke-width="4" stroke-linecap="round"/>
<path d="M14 40C8.00001 43.776 -0.863987 54.042 3.00001 61C8.00001 70 27 62.38 49 45C71 27.62 79.46 2.21198 79.46 2.21198L69 4.99998" stroke="#F8F8F8" stroke-width="4" stroke-linecap="round" stroke-linejoin="round"/>
<path d="M47 71C47 71 48 61 55 55C62 49 71 49 71 49" stroke="#F8F8F8" stroke-width="4" stroke-linecap="round"/>
</svg>
