<svg width="64" height="80" viewBox="0 0 64 80" fill="none" xmlns="http://www.w3.org/2000/svg">
<g clip-path="url(#clip0_3_127)">
<path d="M60 63.75C60 58.675 58.625 53.7 56.0125 49.35L48 36L48 64L60 64L60 63.75ZM16 36L7.9875 49.35C5.375 53.7 4 58.675 4 63.75L4 64L16 64L16 36ZM16 68L4 68L4 70C4 73.3125 6.6875 76 10 76L16 76L16 75C16 77.7625 18.2375 80 21 80L43 80C45.7625 80 48 77.7625 48 75L48 76L54 76C57.3125 76 60 73.3125 60 70L60 68L48 68L48 67C48 63.725 46.425 60.825 44 59L44 23C44 14.3375 41.1625 6.125 33.8 0.599997C32.7375 -0.200006 31.2625 -0.200006 30.2 0.599997C22.8375 6.125 20 14.3375 20 23L20 59C17.575 60.825 16 63.725 16 67L16 68ZM30.45 16L33.5625 16C36.0125 16 38.0125 17.9875 38.0125 20.45C38.0125 20.7625 37.7625 21 37.4625 21L26.55 21C26.2375 21 26 20.75 26 20.45C26 18 27.9875 16 30.45 16Z" fill="#F8F8F8"/>
</g>
<defs>
<clipPath id="clip0_3_127">
<rect width="80" height="64" fill="white" transform="translate(0 80) rotate(-90)"/>
</clipPath>
</defs>
</svg>
